<svg xmlns="http://www.w3.org/2000/svg" width="24" height="24" fill="none" viewBox="0 0 24 24">
  <title>Blend mode applied</title>
  <path fill="currentColor" fill-rule="evenodd" d="M14.783 16.056c.696-.604 1.217-1.567 1.217-3.057 0-1.037-.597-2.328-1.493-3.631-.844-1.227-1.85-2.316-2.507-2.98-.658.664-1.662 1.753-2.507 2.98C8.597 10.671 8 11.962 8 12.998c0 1.491.521 2.454 1.217 3.058.72.623 1.721.943 2.783.943s2.063-.32 2.783-.943M12 17.999c2.5 0 5-1.5 5-5 0-2.712-3-6.023-4.353-7.378a.907.907 0 0 0-1.294 0C10 6.976 7 10.287 7 13c0 3.5 2.5 5 5 5m1.473-3.455c.214-.186.527-.575.527-1.545 0-.397-.29-1.26-1.141-2.497A17 17 0 0 0 12 9.366c-.294.358-.588.74-.859 1.136-.85 1.236-1.141 2.1-1.141 2.497 0 .97.313 1.36.527 1.545.285.247.789.455 1.473.455s1.188-.208 1.473-.455m-2.135-5.946a18 18 0 0 0-1.02 1.337C9.443 11.204 9 12.282 9 12.999c0 1.231.418 1.907.872 2.3.502.436 1.254.7 2.128.7s1.626-.264 2.128-.7c.454-.393.872-1.069.872-2.3 0-.717-.444-1.795-1.317-3.064a18 18 0 0 0-1.02-1.337Q12.32 8.191 12 7.84c-.212.233-.436.487-.662.758M12 14a1 1 0 0 0 1-1c0-.552-1-2-1-2s-1 1.448-1 2a1 1 0 0 0 1 1" clip-rule="evenodd"></path>
</svg>