<svg xmlns="http://www.w3.org/2000/svg" width="24" height="24" viewBox="0 0 24 24" fill="none">
  <title>Boolean Union</title>
  <path opacity="0.3" d="M7 7H14V10H17V17H10V14H7V7Z" fill="currentColor"/>
  <path fill-rule="evenodd" clip-rule="evenodd" d="M14 6C14.2652 6 14.5195 6.10543 14.707 6.29297C14.8946 6.48051 15 6.73478 15 7V9H17C17.2652 9 17.5195 9.10543 17.707 9.29297C17.8946 9.48051 18 9.73478 18 10V17C18 17.2652 17.8946 17.5195 17.707 17.707C17.5195 17.8946 17.2652 18 17 18H10C9.73478 18 9.48051 17.8946 9.29297 17.707C9.10543 17.5195 9 17.2652 9 17V15H7C6.73478 15 6.48051 14.8946 6.29297 14.707C6.10543 14.5195 6 14.2652 6 14V7C6 6.73478 6.10543 6.48051 6.29297 6.29297C6.48051 6.10543 6.73478 6 7 6H14ZM7 14H10V17H17V10H14V7H7V14Z" fill="currentColor"/>
</svg>
