<svg xmlns="http://www.w3.org/2000/svg" width="24" height="24" viewBox="0 0 24 24" fill="none">
  <title>Boolean Intersect</title>
  <path opacity="0.3" fill-rule="evenodd" clip-rule="evenodd" d="M14 10V14H10V10H14Z" fill="currentColor"/>
  <path fill-rule="evenodd" clip-rule="evenodd" d="M10.5 15H10V17H17V10H15V14C15 14.2652 14.8946 14.5196 14.7071 14.7071C14.5196 14.8946 14.2652 15 14 15H10.5ZM10.5 14H10V10H14V14H10.5ZM9 14H7V7H14V9H10C9.73478 9 9.48043 9.10536 9.29289 9.29289C9.10536 9.48043 9 9.73478 9 10V14ZM8 15H7C6.73478 15 6.48043 14.8946 6.29289 14.7071C6.10536 14.5196 6 14.2652 6 14V7C6 6.73478 6.10536 6.48043 6.29289 6.29289C6.48043 6.10536 6.73478 6 7 6H14C14.2652 6 14.5196 6.10536 14.7071 6.29289C14.8946 6.48043 15 6.73478 15 7V9H17C17.2652 9 17.5196 9.10536 17.7071 9.29289C17.8946 9.48043 18 9.73478 18 10V17C18 17.2652 17.8946 17.5196 17.7071 17.7071C17.5196 17.8946 17.2652 18 17 18H10C9.73478 18 9.48043 17.8946 9.29289 17.7071C9.10536 17.5196 9 17.2652 9 17V15H8Z" fill="currentColor"/>
</svg>
