<svg xmlns="http://www.w3.org/2000/svg" width="24" height="24" fill="none" viewBox="0 0 24 24">
  <title>Contrast standard not met</title>
  <path fill="currentColor" fill-rule="evenodd" d="M19.5 12C19.4998 13.4193 19.0969 14.8095 18.3381 16.0089C17.5793 17.2083 16.4957 18.1679 15.2133 18.7759C13.9308 19.384 12.5021 19.6157 11.0932 19.4441C9.6843 19.2725 8.353 18.7046 7.254 17.8065L17.8065 7.254C18.9037 8.5921 19.5022 10.2696 19.5 12ZM6.1935 16.746C5.01565 15.3065 4.4147 13.4807 4.50732 11.623C4.59994 9.76538 5.37952 8.00841 6.69471 6.69321C8.00991 5.37802 9.76688 4.59844 11.6245 4.50582C13.4822 4.4132 15.308 5.01415 16.7475 6.192L6.1935 16.746ZM21 12C21 13.1819 20.7672 14.3522 20.3149 15.4442C19.8626 16.5361 19.1997 17.5282 18.364 18.364C17.5282 19.1997 16.5361 19.8626 15.4442 20.3149C14.3522 20.7672 13.1819 21 12 21C10.8181 21 9.64778 20.7672 8.55585 20.3149C7.46392 19.8626 6.47177 19.1997 5.63604 18.364C4.80031 17.5282 4.13738 16.5361 3.68508 15.4442C3.23279 14.3522 3 13.1819 3 12C3 9.61305 3.94821 7.32387 5.63604 5.63604C7.32387 3.94821 9.61305 3 12 3C14.3869 3 16.6761 3.94821 18.364 5.63604C20.0518 7.32387 21 9.61305 21 12Z"/>
</svg>
