<svg xmlns="http://www.w3.org/2000/svg" width="24" height="24" viewBox="0 0 24 24" fill="none">
  <title>Contrast standard met</title>
  <path fill="currentColor" fill-rule="evenodd" d="M18.4155 5.37604C18.5809 5.4863 18.6958 5.65772 18.7349 5.85264C18.774 6.04756 18.7341 6.25002 18.624 6.41554L11.124 17.6655C11.0626 17.7581 10.9813 17.8358 10.8862 17.8931C10.7911 17.9504 10.6844 17.9858 10.5739 17.9969C10.4633 18.0079 10.3518 17.9943 10.2472 17.957C10.1426 17.9197 10.0475 17.8596 9.969 17.781L5.469 13.281C5.32817 13.1402 5.24905 12.9492 5.24905 12.75C5.24905 12.5509 5.32817 12.3599 5.469 12.219C5.60983 12.0782 5.80084 11.9991 6 11.9991C6.19916 11.9991 6.39017 12.0782 6.531 12.219L10.383 16.074L17.376 5.58454C17.4863 5.41912 17.6577 5.30423 17.8526 5.26514C18.0475 5.22604 18.25 5.26593 18.4155 5.37604Z" clip-rule="evenodd"/>
</svg>
