<svg xmlns="http://www.w3.org/2000/svg" width="24" height="24" fill="none" viewBox="0 0 24 24">
  <title>Component instance</title>
  <path fill="currentColor" fill-rule="evenodd" clip-rule="evenodd" d="M11.823 6.59006L6.59099 11.8231C6.56771 11.8463 6.54924 11.8739 6.53664 11.9042C6.52403 11.9346 6.51755 11.9672 6.51755 12.0001C6.51755 12.0329 6.52403 12.0655 6.53664 12.0959C6.54924 12.1262 6.56771 12.1538 6.59099 12.1771L11.823 17.4091C11.8462 17.4323 11.8738 17.4508 11.9042 17.4634C11.9346 17.476 11.9671 17.4825 12 17.4825C12.0329 17.4825 12.0654 17.476 12.0958 17.4634C12.1262 17.4508 12.1538 17.4323 12.177 17.4091L17.409 12.1771C17.4323 12.1538 17.4507 12.1262 17.4634 12.0959C17.476 12.0655 17.4824 12.0329 17.4824 12.0001C17.4824 11.9672 17.476 11.9346 17.4634 11.9042C17.4507 11.8739 17.4323 11.8463 17.409 11.8231L12.177 6.59106C12.1538 6.56777 12.1262 6.5493 12.0958 6.5367C12.0654 6.5241 12.0329 6.51761 12 6.51761C11.9671 6.51761 11.9346 6.5241 11.9042 6.5367C11.8738 6.5493 11.8462 6.56677 11.823 6.59006ZM11.116 5.88406L5.88399 11.1161C5.76789 11.2321 5.67578 11.3699 5.61294 11.5216C5.5501 11.6733 5.51776 11.8359 5.51776 12.0001C5.51776 12.1642 5.5501 12.3268 5.61294 12.4785C5.67578 12.6302 5.76789 12.768 5.88399 12.8841L11.116 18.1161C11.2321 18.2322 11.3699 18.3243 11.5216 18.3871C11.6732 18.4499 11.8358 18.4823 12 18.4823C12.1642 18.4823 12.3267 18.4499 12.4784 18.3871C12.6301 18.3243 12.7679 18.2322 12.884 18.1161L18.116 12.8841C18.2321 12.768 18.3242 12.6302 18.387 12.4785C18.4499 12.3268 18.4822 12.1642 18.4822 12.0001C18.4822 11.8359 18.4499 11.6733 18.387 11.5216C18.3242 11.3699 18.2321 11.2321 18.116 11.1161L12.884 5.88406C12.7679 5.76795 12.6301 5.67584 12.4784 5.613C12.3267 5.55017 12.1642 5.51782 12 5.51782C11.8358 5.51782 11.6732 5.55017 11.5216 5.613C11.3699 5.67584 11.2321 5.76795 11.116 5.88406Z"/>
</svg>
