<svg xmlns="http://www.w3.org/2000/svg" width="24" height="24" fill="none" viewBox="0 0 24 24">
  <title>Add Variant</title>
  <path fill="currentColor" fill-rule="evenodd" d="m11.823 6.59-5.232 5.233a.25.25 0 0 0 0 .354l5.232 5.232a.25.25 0 0 0 .354 0l5.232-5.232a.25.25 0 0 0 0-.354l-5.232-5.232a.25.25 0 0 0-.354 0m-.707-.706-5.232 5.232a1.25 1.25 0 0 0 0 1.768l5.232 5.232a1.25 1.25 0 0 0 1.768 0l5.232-5.232a1.25 1.25 0 0 0 0-1.768l-5.232-5.232a1.25 1.25 0 0 0-1.768 0M11.5 10a.5.5 0 0 1 1 0v1.5H14a.5.5 0 1 1 0 1h-1.5V14a.5.5 0 1 1-1 0v-1.5H10a.5.5 0 1 1 0-1h1.5z" clip-rule="evenodd"/>
</svg>
