<svg xmlns="http://www.w3.org/2000/svg" width="24" height="24" fill="none" viewBox="0 0 24 24">
  <title>Corner radius top right</title>
  <path fill="currentColor" fill-rule="evenodd" d="M11.522 8H8.5a.5.5 0 0 0 0 1h3c.708 0 1.21 0 1.601.032.386.032.622.092.807.186a2 2 0 0 1 .874.874c.094.185.154.42.186.807.032.392.032.893.032 1.601v3a.5.5 0 0 0 1 0v-3.022c0-.681 0-1.223-.036-1.66-.036-.448-.113-.83-.291-1.18a3 3 0 0 0-1.311-1.311c-.35-.178-.732-.255-1.18-.291C12.746 8 12.204 8 11.523 8" clip-rule="evenodd"/>
</svg>
