<svg xmlns="http://www.w3.org/2000/svg" width="24" height="24" fill="none" viewBox="0 0 24 24">
  <title>Effect texture</title>
  <path fill="currentColor" fill-rule="evenodd" d="M10.5 8.5a1 1 0 1 0 0-2 1 1 0 0 0 0 2m-2 2a1 1 0 1 1-2 0 1 1 0 0 1 2 0m0 6a1 1 0 1 1-2 0 1 1 0 0 1 2 0m3-3a1 1 0 1 1-2 0 1 1 0 0 1 2 0m2-2a1 1 0 1 0 0-2 1 1 0 0 0 0 2m1 5a1 1 0 1 1-2 0 1 1 0 0 1 2 0M7.5 8a.5.5 0 1 0 0-1 .5.5 0 0 0 0 1m.5 5.5a.5.5 0 1 1-1 0 .5.5 0 0 1 1 0m2.5-2.5a.5.5 0 1 0 0-1 .5.5 0 0 0 0 1m.5 5.5a.5.5 0 1 1-1 0 .5.5 0 0 1 1 0M13.5 8a.5.5 0 1 0 0-1 .5.5 0 0 0 0 1m.5 5.5a.5.5 0 1 1-1 0 .5.5 0 0 1 1 0m2.5-2.5a.5.5 0 1 0 0-1 .5.5 0 0 0 0 1m.5 5.5a.5.5 0 1 1-1 0 .5.5 0 0 1 1 0m-.5-8a1 1 0 1 0 0-2 1 1 0 0 0 0 2m1 5a1 1 0 1 1-2 0 1 1 0 0 1 2 0" clip-rule="evenodd"/>
</svg>
