<svg xmlns="http://www.w3.org/2000/svg" width="24" height="24" fill="none" viewBox="0 0 24 24">
  <title>Effect noise density</title>
  <path fill="currentColor" fill-rule="evenodd" d="M8 7a1 1 0 1 1 0 2 1 1 0 0 1 0-2M6 8a2 2 0 1 0 4 0 2 2 0 0 0-4 0m6 3a1 1 0 1 1 0 2 1 1 0 0 1 0-2m-2 1a2 2 0 1 0 4 0 2 2 0 0 0-4 0m7-4a1 1 0 1 0-2 0 1 1 0 0 0 2 0m-1 2a2 2 0 1 1 0-4 2 2 0 0 1 0 4m-8 5a1 1 0 1 1 0 2 1 1 0 0 1 0-2m-2 1a2 2 0 1 0 4 0 2 2 0 0 0-4 0m11 0a1 1 0 1 0-2 0 1 1 0 0 0 2 0m-1 2a2 2 0 1 1 0-4 2 2 0 0 1 0 4m-3-2a.5.5 0 0 0-.5-.5h-1a.5.5 0 0 0 0 1h1a.5.5 0 0 0 .5-.5m-5.5-4.5v1a.5.5 0 0 0 1 0v-1a.5.5 0 0 0-1 0M16 11a.5.5 0 0 0-.5.5v1a.5.5 0 0 0 1 0v-1a.5.5 0 0 0-.5-.5m-3-3a.5.5 0 0 0-.5-.5h-1a.5.5 0 0 0 0 1h1A.5.5 0 0 0 13 8" clip-rule="evenodd"/>
</svg>
