<svg xmlns="http://www.w3.org/2000/svg" width="24" height="24" fill="none" viewBox="0 0 24 24">
  <title>Effect blur</title>
  <path fill="currentColor" fill-rule="evenodd" d="M13 9a1 1 0 1 1-2 0 1 1 0 0 1 2 0M9.75 9a.75.75 0 1 1-1.5 0 .75.75 0 0 1 1.5 0m.25 3a1 1 0 1 1-2 0 1 1 0 0 1 2 0m-1 3.75a.75.75 0 1 0 0-1.5.75.75 0 0 0 0 1.5M12 13a1 1 0 1 0 0-2 1 1 0 0 0 0 2m1 2a1 1 0 1 1-2 0 1 1 0 0 1 2 0m2-5.25a.75.75 0 1 0 0-1.5.75.75 0 0 0 0 1.5M16 12a1 1 0 1 1-2 0 1 1 0 0 1 2 0m-1 3.75a.75.75 0 1 0 0-1.5.75.75 0 0 0 0 1.5" clip-rule="evenodd"/>
</svg>
