<svg xmlns="http://www.w3.org/2000/svg" width="24" height="24" viewBox="0 0 24 24" fill="none">
  <title>Layer lock unlocked</title>
  <path fill-rule="evenodd" clip-rule="evenodd" d="M9 9C9 8.20435 9.31607 7.44129 9.87868 6.87868C10.4413 6.31607 11.2044 6 12 6C12.7956 6 13.5587 6.31607 14.1213 6.87868C14.6839 7.44129 15 8.20435 15 9V11.025C15.57 11.141 16 11.645 16 12.25V15.75C16 16.44 15.44 17 14.75 17H9.25C8.56 17 8 16.44 8 15.75V12.25C8 11.56 8.56 11 9.25 11H14V9C14 8.46957 13.7893 7.96086 13.4142 7.58579C13.0391 7.21071 12.5304 7 12 7C11.4696 7 10.9609 7.21071 10.5858 7.58579C10.2107 7.96086 10 8.46957 10 9C10 9.13261 9.94732 9.25979 9.85355 9.35355C9.75979 9.44732 9.63261 9.5 9.5 9.5C9.36739 9.5 9.24021 9.44732 9.14645 9.35355C9.05268 9.25979 9 9.13261 9 9ZM9.25 12C9.1837 12 9.12011 12.0263 9.07322 12.0732C9.02634 12.1201 9 12.1837 9 12.25V15.75C9 15.888 9.112 16 9.25 16H14.75C14.8163 16 14.8799 15.9737 14.9268 15.9268C14.9737 15.8799 15 15.8163 15 15.75V12.25C15 12.1837 14.9737 12.1201 14.9268 12.0732C14.8799 12.0263 14.8163 12 14.75 12H9.25Z" fill="currentColor"/>
</svg>
