<svg xmlns="http://www.w3.org/2000/svg" width="24" height="24" viewBox="0 0 24 24" fill="none">
  <title>Layer component instance</title>
  <path fill-rule="evenodd" clip-rule="evenodd" d="M11.293 6.29303C11.4805 6.10556 11.7348 6.00024 12 6.00024C12.2652 6.00024 12.5195 6.10556 12.707 6.29303L17.707 11.293C17.8945 11.4806 17.9998 11.7349 17.9998 12C17.9998 12.2652 17.8945 12.5195 17.707 12.707L12.707 17.707C12.5195 17.8945 12.2652 17.9998 12 17.9998C11.7348 17.9998 11.4805 17.8945 11.293 17.707L6.293 12.707C6.10553 12.5195 6.00021 12.2652 6.00021 12C6.00021 11.7349 6.10553 11.4806 6.293 11.293L11.293 6.29303ZM7.707 12.707L7 12L7.707 11.293L11.293 7.70703L12 7.00003L12.707 7.70703L16.293 11.293L17 12L16.293 12.707L12.707 16.293L12 17L11.293 16.293L7.707 12.707Z" fill="currentColor"/>
</svg>
