<svg xmlns="http://www.w3.org/2000/svg" width="24" height="24" viewBox="0 0 24 24" fill="none">
  <title>Layer component main</title>
  <path fill-rule="evenodd" clip-rule="evenodd" d="M12 9.83807L10.66 8.50007L12 7.16207L13.34 8.50007L12 9.83807ZM11.57 6.17807L9.68001 8.06607C9.62292 8.12301 9.57763 8.19065 9.54673 8.26513C9.51582 8.3396 9.49992 8.41944 9.49992 8.50007C9.49992 8.5807 9.51582 8.66053 9.54673 8.73501C9.57763 8.80948 9.62292 8.87712 9.68001 8.93407L11.57 10.8221C11.6843 10.9356 11.8389 10.9994 12 10.9994C12.1611 10.9994 12.3157 10.9356 12.43 10.8221L14.32 8.93407C14.3771 8.87712 14.4224 8.80948 14.4533 8.73501C14.4842 8.66053 14.5001 8.5807 14.5001 8.50007C14.5001 8.41944 14.4842 8.3396 14.4533 8.26513C14.4224 8.19065 14.3771 8.12301 14.32 8.06607L12.43 6.17807C12.3157 6.06448 12.1611 6.00073 12 6.00073C11.8389 6.00073 11.6843 6.06448 11.57 6.17807ZM14.161 12.0001L15.5 10.6601L16.838 12.0001L15.5 13.3401L14.161 12.0001ZM13.177 12.4301L15.065 14.3201C15.305 14.5601 15.693 14.5601 15.933 14.3201L17.821 12.4301C17.9346 12.3158 17.9983 12.1612 17.9983 12.0001C17.9983 11.8389 17.9346 11.6844 17.821 11.5701L15.933 9.68007C15.8761 9.62298 15.8084 9.57769 15.7339 9.54679C15.6595 9.51589 15.5796 9.49998 15.499 9.49998C15.4184 9.49998 15.3385 9.51589 15.2641 9.54679C15.1896 9.57769 15.1219 9.62298 15.065 9.68007L13.178 11.5701C13.0644 11.6844 13.0007 11.8389 13.0007 12.0001C13.0007 12.1612 13.0644 12.3158 13.178 12.4301M10.66 15.5001L12 16.8381L13.34 15.5001L12 14.1621L10.66 15.5001ZM9.68001 15.0661L11.57 13.1781C11.6843 13.0645 11.8389 13.0007 12 13.0007C12.1611 13.0007 12.3157 13.0645 12.43 13.1781L14.32 15.0661C14.56 15.3061 14.56 15.6941 14.32 15.9341L12.43 17.8221C12.3157 17.9356 12.1611 17.9994 12 17.9994C11.8389 17.9994 11.6843 17.9356 11.57 17.8221L9.68001 15.9341C9.62292 15.8771 9.57763 15.8095 9.54673 15.735C9.51582 15.6605 9.49992 15.5807 9.49992 15.5001C9.49992 15.4194 9.51582 15.3396 9.54673 15.2651C9.57763 15.1907 9.62292 15.123 9.68001 15.0661ZM7.16201 12.0001L8.50001 10.6601L9.83801 12.0001L8.50001 13.3401L7.16201 12.0001ZM6.17801 12.4301L8.06601 14.3201C8.30601 14.5601 8.69401 14.5601 8.93401 14.3201L10.822 12.4301C10.9356 12.3158 10.9993 12.1612 10.9993 12.0001C10.9993 11.8389 10.9356 11.6844 10.822 11.5701L8.93401 9.68007C8.87706 9.62298 8.80942 9.57769 8.73495 9.54679C8.66047 9.51589 8.58064 9.49998 8.50001 9.49998C8.41938 9.49998 8.33954 9.51589 8.26507 9.54679C8.19059 9.57769 8.12295 9.62298 8.06601 9.68007L6.17801 11.5701C6.06442 11.6844 6.00067 11.8389 6.00067 12.0001C6.00067 12.1612 6.06442 12.3158 6.17801 12.4301Z" fill="currentColor"/>
</svg>
