<svg xmlns="http://www.w3.org/2000/svg" width="24" height="24" viewBox="0 0 24 24" fill="none">
  <title>Layer group</title>
  <path fill-rule="evenodd" clip-rule="evenodd" d="M7 8C7 7.73478 7.10536 7.48043 7.29289 7.29289C7.48043 7.10536 7.73478 7 8 7C8.13261 7 8.25979 7.05268 8.35355 7.14645C8.44732 7.24021 8.5 7.36739 8.5 7.5C8.5 7.63261 8.44732 7.75979 8.35355 7.85355C8.25979 7.94732 8.13261 8 8 8C8 8.13261 7.94732 8.25979 7.85355 8.35355C7.75979 8.44732 7.63261 8.5 7.5 8.5C7.36739 8.5 7.24021 8.44732 7.14645 8.35355C7.05268 8.25979 7 8.13261 7 8ZM9.5 7.5C9.5 7.36739 9.55268 7.24021 9.64645 7.14645C9.74021 7.05268 9.86739 7 10 7H11C11.1326 7 11.2598 7.05268 11.3536 7.14645C11.4473 7.24021 11.5 7.36739 11.5 7.5C11.5 7.63261 11.4473 7.75979 11.3536 7.85355C11.2598 7.94732 11.1326 8 11 8H10C9.86739 8 9.74021 7.94732 9.64645 7.85355C9.55268 7.75979 9.5 7.63261 9.5 7.5ZM12.5 7.5C12.5 7.36739 12.5527 7.24021 12.6464 7.14645C12.7402 7.05268 12.8674 7 13 7H14C14.1326 7 14.2598 7.05268 14.3536 7.14645C14.4473 7.24021 14.5 7.36739 14.5 7.5C14.5 7.63261 14.4473 7.75979 14.3536 7.85355C14.2598 7.94732 14.1326 8 14 8H13C12.8674 8 12.7402 7.94732 12.6464 7.85355C12.5527 7.75979 12.5 7.63261 12.5 7.5ZM15.5 7.5C15.5 7.36739 15.5527 7.24021 15.6464 7.14645C15.7402 7.05268 15.8674 7 16 7C16.2652 7 16.5196 7.10536 16.7071 7.29289C16.8946 7.48043 17 7.73478 17 8C17 8.13261 16.9473 8.25979 16.8536 8.35355C16.7598 8.44732 16.6326 8.5 16.5 8.5C16.3674 8.5 16.2402 8.44732 16.1464 8.35355C16.0527 8.25979 16 8.13261 16 8C15.8674 8 15.7402 7.94732 15.6464 7.85355C15.5527 7.75979 15.5 7.63261 15.5 7.5ZM7.5 9.5C7.63261 9.5 7.75979 9.55268 7.85355 9.64645C7.94732 9.74021 8 9.86739 8 10V11C8 11.1326 7.94732 11.2598 7.85355 11.3536C7.75979 11.4473 7.63261 11.5 7.5 11.5C7.36739 11.5 7.24021 11.4473 7.14645 11.3536C7.05268 11.2598 7 11.1326 7 11V10C7 9.86739 7.05268 9.74021 7.14645 9.64645C7.24021 9.55268 7.36739 9.5 7.5 9.5ZM16.5 9.5C16.6326 9.5 16.7598 9.55268 16.8536 9.64645C16.9473 9.74021 17 9.86739 17 10V11C17 11.1326 16.9473 11.2598 16.8536 11.3536C16.7598 11.4473 16.6326 11.5 16.5 11.5C16.3674 11.5 16.2402 11.4473 16.1464 11.3536C16.0527 11.2598 16 11.1326 16 11V10C16 9.86739 16.0527 9.74021 16.1464 9.64645C16.2402 9.55268 16.3674 9.5 16.5 9.5ZM7.5 12.5C7.63261 12.5 7.75979 12.5527 7.85355 12.6464C7.94732 12.7402 8 12.8674 8 13V14C8 14.1326 7.94732 14.2598 7.85355 14.3536C7.75979 14.4473 7.63261 14.5 7.5 14.5C7.36739 14.5 7.24021 14.4473 7.14645 14.3536C7.05268 14.2598 7 14.1326 7 14V13C7 12.8674 7.05268 12.7402 7.14645 12.6464C7.24021 12.5527 7.36739 12.5 7.5 12.5ZM16.5 12.5C16.6326 12.5 16.7598 12.5527 16.8536 12.6464C16.9473 12.7402 17 12.8674 17 13V14C17 14.1326 16.9473 14.2598 16.8536 14.3536C16.7598 14.4473 16.6326 14.5 16.5 14.5C16.3674 14.5 16.2402 14.4473 16.1464 14.3536C16.0527 14.2598 16 14.1326 16 14V13C16 12.8674 16.0527 12.7402 16.1464 12.6464C16.2402 12.5527 16.3674 12.5 16.5 12.5ZM7.5 15.5C7.63261 15.5 7.75979 15.5527 7.85355 15.6464C7.94732 15.7402 8 15.8674 8 16C8.13261 16 8.25979 16.0527 8.35355 16.1464C8.44732 16.2402 8.5 16.3674 8.5 16.5C8.5 16.6326 8.44732 16.7598 8.35355 16.8536C8.25979 16.9473 8.13261 17 8 17C7.73478 17 7.48043 16.8946 7.29289 16.7071C7.10536 16.5196 7 16.2652 7 16C7 15.8674 7.05268 15.7402 7.14645 15.6464C7.24021 15.5527 7.36739 15.5 7.5 15.5ZM16.5 15.5C16.6326 15.5 16.7598 15.5527 16.8536 15.6464C16.9473 15.7402 17 15.8674 17 16C17 16.2652 16.8946 16.5196 16.7071 16.7071C16.5196 16.8946 16.2652 17 16 17C15.8674 17 15.7402 16.9473 15.6464 16.8536C15.5527 16.7598 15.5 16.6326 15.5 16.5C15.5 16.3674 15.5527 16.2402 15.6464 16.1464C15.7402 16.0527 15.8674 16 16 16C16 15.8674 16.0527 15.7402 16.1464 15.6464C16.2402 15.5527 16.3674 15.5 16.5 15.5ZM9.5 16.5C9.5 16.3674 9.55268 16.2402 9.64645 16.1464C9.74021 16.0527 9.86739 16 10 16H11C11.1326 16 11.2598 16.0527 11.3536 16.1464C11.4473 16.2402 11.5 16.3674 11.5 16.5C11.5 16.6326 11.4473 16.7598 11.3536 16.8536C11.2598 16.9473 11.1326 17 11 17H10C9.86739 17 9.74021 16.9473 9.64645 16.8536C9.55268 16.7598 9.5 16.6326 9.5 16.5ZM12.5 16.5C12.5 16.3674 12.5527 16.2402 12.6464 16.1464C12.7402 16.0527 12.8674 16 13 16H14C14.1326 16 14.2598 16.0527 14.3536 16.1464C14.4473 16.2402 14.5 16.3674 14.5 16.5C14.5 16.6326 14.4473 16.7598 14.3536 16.8536C14.2598 16.9473 14.1326 17 14 17H13C12.8674 17 12.7402 16.9473 12.6464 16.8536C12.5527 16.7598 12.5 16.6326 12.5 16.5Z" fill="currentColor"/>
</svg>
