<svg xmlns="http://www.w3.org/2000/svg" width="24" height="24" viewBox="0 0 24 24" fill="none">
  <title>Layer frame</title>
  <path fill-rule="evenodd" clip-rule="evenodd" d="M9.5 7C9.63261 7 9.75979 7.05268 9.85355 7.14645C9.94732 7.24021 10 7.36739 10 7.5V9H14V7.5C14 7.36739 14.0527 7.24021 14.1464 7.14645C14.2402 7.05268 14.3674 7 14.5 7C14.6326 7 14.7598 7.05268 14.8536 7.14645C14.9473 7.24021 15 7.36739 15 7.5V9H16.5C16.6326 9 16.7598 9.05268 16.8536 9.14645C16.9473 9.24021 17 9.36739 17 9.5C17 9.63261 16.9473 9.75979 16.8536 9.85355C16.7598 9.94732 16.6326 10 16.5 10H15V14H16.5C16.6326 14 16.7598 14.0527 16.8536 14.1464C16.9473 14.2402 17 14.3674 17 14.5C17 14.6326 16.9473 14.7598 16.8536 14.8536C16.7598 14.9473 16.6326 15 16.5 15H15V16.5C15 16.6326 14.9473 16.7598 14.8536 16.8536C14.7598 16.9473 14.6326 17 14.5 17C14.3674 17 14.2402 16.9473 14.1464 16.8536C14.0527 16.7598 14 16.6326 14 16.5V15H10V16.5C10 16.6326 9.94732 16.7598 9.85355 16.8536C9.75979 16.9473 9.63261 17 9.5 17C9.36739 17 9.24021 16.9473 9.14645 16.8536C9.05268 16.7598 9 16.6326 9 16.5V15H7.5C7.36739 15 7.24021 14.9473 7.14645 14.8536C7.05268 14.7598 7 14.6326 7 14.5C7 14.3674 7.05268 14.2402 7.14645 14.1464C7.24021 14.0527 7.36739 14 7.5 14H9V10H7.5C7.36739 10 7.24021 9.94732 7.14645 9.85355C7.05268 9.75979 7 9.63261 7 9.5C7 9.36739 7.05268 9.24021 7.14645 9.14645C7.24021 9.05268 7.36739 9 7.5 9H9V7.5C9 7.36739 9.05268 7.24021 9.14645 7.14645C9.24021 7.05268 9.36739 7 9.5 7ZM14 14V10H10V14H14Z" fill="currentColor"/>
</svg>
