<svg xmlns="http://www.w3.org/2000/svg" width="24" height="24" viewBox="0 0 24 24" fill="none">
  <title>Layer visible hide</title>
  <path fill-rule="evenodd" clip-rule="evenodd" d="M7.035 12.07L7.01 12L7.036 11.93C7.07867 11.8267 7.157 11.6893 7.271 11.518C7.56877 11.0977 7.92311 10.7205 8.324 10.397C9.257 9.627 10.54 9 12 9C13.46 9 14.743 9.628 15.677 10.397C16.142 10.78 16.498 11.18 16.73 11.518C16.846 11.688 16.921 11.828 16.965 11.931L16.99 12L16.964 12.07C16.9213 12.1733 16.843 12.3107 16.729 12.482C16.4312 12.9023 16.0769 13.2795 15.676 13.603C14.743 14.373 13.46 15 12 15C10.54 15 9.257 14.372 8.323 13.603C7.92211 13.2795 7.56777 12.9023 7.27 12.482C7.17873 12.3521 7.10004 12.2148 7.035 12.07ZM6 12C6 11 8.5 8 12 8C15.5 8 18 11 18 12C18 13 15.5 16 12 16C8.5 16 6 13 6 12ZM12 13C12.2652 13 12.5196 12.8946 12.7071 12.7071C12.8946 12.5196 13 12.2652 13 12C13 11.7348 12.8946 11.4804 12.7071 11.2929C12.5196 11.1054 12.2652 11 12 11C11.7348 11 11.4804 11.1054 11.2929 11.2929C11.1054 11.4804 11 11.7348 11 12C11 12.2652 11.1054 12.5196 11.2929 12.7071C11.4804 12.8946 11.7348 13 12 13Z" fill="currentColor"/>
</svg>
