<svg xmlns="http://www.w3.org/2000/svg" width="24" height="24" viewBox="0 0 24 24" fill="none">
  <title>Layer lock locked</title>
  <path d="M14.75 12H9.25C9.11193 12 9 12.1119 9 12.25V15.75C9 15.8881 9.11193 16 9.25 16H14.75C14.8881 16 15 15.8881 15 15.75V12.25C15 12.1119 14.8881 12 14.75 12Z" fill="currentColor"/>
  <path fill-rule="evenodd" clip-rule="evenodd" d="M14.776 12H9.224L9.199 12.005C9.14272 12.0167 9.0922 12.0475 9.05595 12.0921C9.0197 12.1368 8.99994 12.1925 9 12.25V15.75C9 15.888 9.112 16 9.25 16H14.75C14.8163 16 14.8799 15.9737 14.9268 15.9268C14.9737 15.8799 15 15.8163 15 15.75V12.25C15.0001 12.1925 14.9803 12.1368 14.9441 12.0921C14.9078 12.0475 14.8573 12.0167 14.801 12.005L14.776 12ZM11 11H10V10C10 9.46957 10.2107 8.96086 10.5858 8.58579C10.9609 8.21071 11.4696 8 12 8C12.5304 8 13.0391 8.21071 13.4142 8.58579C13.7893 8.96086 14 9.46957 14 10V11H11ZM9 10C9 9.20435 9.31607 8.44129 9.87868 7.87868C10.4413 7.31607 11.2044 7 12 7C12.7956 7 13.5587 7.31607 14.1213 7.87868C14.6839 8.44129 15 9.20435 15 10V11.025C15.57 11.141 16 11.645 16 12.25V15.75C16 16.44 15.44 17 14.75 17H9.25C8.56 17 8 16.44 8 15.75V12.25C8 11.645 8.43 11.14 9 11.025V10Z" fill="currentColor"/>
</svg>
