<svg xmlns="http://www.w3.org/2000/svg" width="24" height="24" fill="none" viewBox="0 0 24 24">
  <title>Layer text</title>
  <path fill="currentColor" fill-rule="evenodd" d="M7 7.5C7 7.36739 7.05268 7.24021 7.14645 7.14645C7.24021 7.05268 7.36739 7 7.5 7H16.5C16.6326 7 16.7598 7.05268 16.8536 7.14645C16.9473 7.24021 17 7.36739 17 7.5V9C17 9.13261 16.9473 9.25979 16.8536 9.35355C16.7598 9.44732 16.6326 9.5 16.5 9.5C16.3674 9.5 16.2402 9.44732 16.1464 9.35355C16.0527 9.25979 16 9.13261 16 9V8H12.5V16H13.5C13.6326 16 13.7598 16.0527 13.8536 16.1464C13.9473 16.2402 14 16.3674 14 16.5C14 16.6326 13.9473 16.7598 13.8536 16.8536C13.7598 16.9473 13.6326 17 13.5 17H10.5C10.3674 17 10.2402 16.9473 10.1464 16.8536C10.0527 16.7598 10 16.6326 10 16.5C10 16.3674 10.0527 16.2402 10.1464 16.1464C10.2402 16.0527 10.3674 16 10.5 16H11.5V8H8V9C8 9.13261 7.94732 9.25979 7.85355 9.35355C7.75979 9.44732 7.63261 9.5 7.5 9.5C7.36739 9.5 7.24021 9.44732 7.14645 9.35355C7.05268 9.25979 7 9.13261 7 9V7.5Z" clip-rule="evenodd"/>
</svg>
