<svg xmlns="http://www.w3.org/2000/svg" width="24" height="24" viewBox="0 0 24 24" fill="none">
  <title>Layer complex vector</title>
  <path fill-rule="evenodd" clip-rule="evenodd" d="M15 8.49995C15 8.63255 15.0527 8.75973 15.1464 8.8535C15.2402 8.94727 15.3674 8.99995 15.5 8.99995C15.6326 8.99995 15.7598 8.94727 15.8536 8.8535C15.9473 8.75973 16 8.63255 16 8.49995C16 8.36734 15.9473 8.24016 15.8536 8.14639C15.7598 8.05262 15.6326 7.99995 15.5 7.99995C15.3674 7.99995 15.2402 8.05262 15.1464 8.14639C15.0527 8.24016 15 8.36734 15 8.49995ZM15 9.91495C14.6664 9.797 14.3852 9.56491 14.2062 9.25971C14.0271 8.9545 13.9618 8.59583 14.0216 8.24708C14.0814 7.89833 14.2626 7.58196 14.5332 7.35389C14.8037 7.12582 15.1462 7.00073 15.5 7.00073C15.8538 7.00073 16.1963 7.12582 16.4668 7.35389C16.7374 7.58196 16.9186 7.89833 16.9784 8.24708C17.0382 8.59583 16.9729 8.9545 16.7938 9.25971C16.6148 9.56491 16.3336 9.797 16 9.91495V14.4999L16.823 15.3229C16.8463 15.3462 16.8648 15.3738 16.8774 15.4041C16.89 15.4345 16.8965 15.4671 16.8965 15.4999C16.8965 15.5328 16.89 15.5654 16.8774 15.5958C16.8648 15.6261 16.8463 15.6537 16.823 15.6769L15.677 16.8229C15.6538 16.8462 15.6262 16.8647 15.5958 16.8773C15.5654 16.8899 15.5329 16.8964 15.5 16.8964C15.4671 16.8964 15.4346 16.8899 15.4042 16.8773C15.3738 16.8647 15.3462 16.8462 15.323 16.8229L14.177 15.6769C14.1537 15.6537 14.1353 15.6261 14.1226 15.5958C14.11 15.5654 14.1036 15.5328 14.1036 15.4999C14.1036 15.4671 14.11 15.4345 14.1226 15.4041C14.1353 15.3738 14.1537 15.3462 14.177 15.3229L15 14.4999V12.5049C14.7693 12.7834 14.4581 12.9836 14.109 13.0779C13.665 13.1919 13.229 13.1029 12.851 12.9659C12.481 12.8319 12.109 12.6289 11.778 12.4479L11.761 12.4379C11.409 12.2479 11.1 12.0799 10.808 11.9739C10.518 11.8689 10.306 11.8479 10.14 11.8909C9.99 11.9289 9.8 12.0399 9.594 12.3709C9.386 12.7039 9.179 13.2339 9 14.0529V14.0849C9.33361 14.2029 9.61478 14.435 9.79382 14.7402C9.97286 15.0454 10.0382 15.4041 9.9784 15.7528C9.91857 16.1016 9.73737 16.4179 9.46683 16.646C9.1963 16.8741 8.85385 16.9992 8.5 16.9992C8.14616 16.9992 7.80371 16.8741 7.53317 16.646C7.26264 16.4179 7.08144 16.1016 7.02161 15.7528C6.96177 15.4041 7.02715 15.0454 7.20619 14.7402C7.38523 14.435 7.6664 14.2029 8 14.0849V9.49995L7.177 8.67695C7.15372 8.65372 7.13525 8.62614 7.12265 8.59576C7.11004 8.56539 7.10356 8.53283 7.10356 8.49995C7.10356 8.46706 7.11004 8.4345 7.12265 8.40413C7.13525 8.37376 7.15372 8.34617 7.177 8.32295L8.323 7.17695C8.34623 7.15366 8.37381 7.13519 8.40419 7.12259C8.43456 7.10999 8.46712 7.1035 8.5 7.1035C8.53289 7.1035 8.56545 7.10999 8.59582 7.12259C8.62619 7.13519 8.65378 7.15366 8.677 7.17695L9.823 8.32295C9.84628 8.34617 9.86476 8.37376 9.87736 8.40413C9.88996 8.4345 9.89645 8.46706 9.89645 8.49995C9.89645 8.53283 9.88996 8.56539 9.87736 8.59576C9.86476 8.62614 9.84628 8.65372 9.823 8.67695L9 9.49995V11.4949C9.25534 11.2009 9.55234 11.0099 9.891 10.9219C10.335 10.8079 10.771 10.8969 11.149 11.0339C11.519 11.1679 11.891 11.3709 12.222 11.5519L12.239 11.5619C12.591 11.7519 12.9 11.9199 13.192 12.0259C13.482 12.1309 13.694 12.1519 13.86 12.1089C14.01 12.0709 14.2 11.9599 14.406 11.6289C14.614 11.2959 14.821 10.7659 15 9.94595V9.91495ZM8 15.4999C8 15.6326 8.05268 15.7597 8.14645 15.8535C8.24022 15.9473 8.36739 15.9999 8.5 15.9999C8.63261 15.9999 8.75979 15.9473 8.85356 15.8535C8.94732 15.7597 9 15.6326 9 15.4999C9 15.3673 8.94732 15.2402 8.85356 15.1464C8.75979 15.0526 8.63261 14.9999 8.5 14.9999C8.36739 14.9999 8.24022 15.0526 8.14645 15.1464C8.05268 15.2402 8 15.3673 8 15.4999Z" fill="currentColor"/>
</svg>
