<svg xmlns="http://www.w3.org/2000/svg" width="24" height="24" viewBox="0 0 24 24" fill="none">
  <title>Layer hidden show</title>
  <path fill-rule="evenodd" clip-rule="evenodd" d="M6.159 10.058C6.019 9.766 6.262 9.5 6.586 9.5C6.966 9.5 7.016 9.58 7.157 9.807C7.18834 9.85767 7.226 9.916 7.27 9.982C7.502 10.32 7.858 10.72 8.323 11.103C9.257 11.873 10.54 12.5 12 12.5C13.46 12.5 14.743 11.872 15.677 11.103C16.0779 10.7795 16.4322 10.4023 16.73 9.982L16.839 9.814C16.987 9.579 17.037 9.5 17.414 9.5C17.738 9.5 17.98 9.766 17.841 10.058C17.607 10.549 17.123 11.178 16.444 11.764L17.416 13.223C17.4547 13.2776 17.482 13.3393 17.4964 13.4047C17.5108 13.47 17.5119 13.5376 17.4998 13.6033C17.4876 13.6691 17.4623 13.7318 17.4255 13.7876C17.3886 13.8434 17.3409 13.8913 17.2853 13.9284C17.2296 13.9655 17.167 13.991 17.1013 14.0034C17.0356 14.0159 16.968 14.0151 16.9026 14.0009C16.8372 13.9868 16.7753 13.9597 16.7206 13.9213C16.6659 13.8828 16.6194 13.8337 16.584 13.777L15.644 12.367C15.1483 12.6928 14.6143 12.9562 14.054 13.151L14.484 14.879C14.5127 15.0064 14.4904 15.14 14.4218 15.2512C14.3533 15.3623 14.244 15.4423 14.1172 15.4739C13.9905 15.5055 13.8565 15.4863 13.7437 15.4203C13.631 15.3544 13.5485 15.247 13.514 15.121L13.085 13.403C12.3673 13.5306 11.6327 13.5306 10.915 13.403L10.485 15.121C10.4505 15.247 10.368 15.3544 10.2553 15.4203C10.1426 15.4863 10.0085 15.5055 9.88177 15.4739C9.75505 15.4423 9.64574 15.3623 9.57719 15.2512C9.50865 15.14 9.48633 15.0064 9.515 14.879L9.947 13.151C9.38673 12.9562 8.85269 12.6928 8.357 12.367L7.416 13.777C7.34077 13.8831 7.22715 13.9557 7.09926 13.9794C6.97137 14.0031 6.83928 13.9761 6.73101 13.904C6.62275 13.8319 6.54684 13.7204 6.51939 13.5933C6.49194 13.4662 6.51512 13.3333 6.584 13.223L7.556 11.764C6.876 11.178 6.393 10.549 6.159 10.058Z" fill="currentColor"/>
</svg>
