<svg xmlns="http://www.w3.org/2000/svg" width="24" height="24" viewBox="0 0 24 24" fill="none">
  <title>Layer mask</title>
  <path fill-rule="evenodd" clip-rule="evenodd" d="M13 13.965V12C13 11.7348 12.8946 11.4804 12.7071 11.2929C12.5196 11.1054 12.2652 11 12 11H10.035C10.1433 11.7479 10.4905 12.4408 11.0249 12.9751C11.5592 13.5095 12.2521 13.8567 13 13.965ZM10.035 10C10.128 9.35722 10.398 8.75299 10.8148 8.2549C11.2316 7.75682 11.7787 7.38453 12.3951 7.17969C13.0114 6.97485 13.6725 6.94554 14.3046 7.09503C14.9366 7.24453 15.5146 7.56693 15.9738 8.02618C16.4331 8.48542 16.7555 9.06339 16.905 9.69542C17.0545 10.3275 17.0252 10.9886 16.8203 11.6049C16.6155 12.2213 16.2432 12.7684 15.7451 13.1852C15.247 13.602 14.6428 13.872 14 13.965V12C14 11.4696 13.7893 10.9609 13.4142 10.5858C13.0391 10.2107 12.5304 10 12 10H10.035ZM18 10.5C18 11.6935 17.5259 12.8381 16.682 13.682C15.8381 14.5259 14.6935 15 13.5 15C12.3065 15 11.1619 14.5259 10.318 13.682C9.47411 12.8381 9 11.6935 9 10.5C9 9.30653 9.47411 8.16193 10.318 7.31802C11.1619 6.47411 12.3065 6 13.5 6C14.6935 6 15.8381 6.47411 16.682 7.31802C17.5259 8.16193 18 9.30653 18 10.5ZM7 11.5C7 11.3674 7.05268 11.2402 7.14645 11.1464C7.24021 11.0527 7.36739 11 7.5 11C7.63261 11 7.75979 10.9473 7.85355 10.8536C7.94732 10.7598 8 10.6326 8 10.5C8 10.3674 7.94732 10.2402 7.85355 10.1464C7.75979 10.0527 7.63261 10 7.5 10C7.10218 10 6.72064 10.158 6.43934 10.4393C6.15804 10.7206 6 11.1022 6 11.5C6 11.6326 6.05268 11.7598 6.14645 11.8536C6.24021 11.9473 6.36739 12 6.5 12C6.63261 12 6.75979 11.9473 6.85355 11.8536C6.94732 11.7598 7 11.6326 7 11.5ZM7 13.5C7 13.3674 6.94732 13.2402 6.85355 13.1464C6.75979 13.0527 6.63261 13 6.5 13C6.36739 13 6.24021 13.0527 6.14645 13.1464C6.05268 13.2402 6 13.3674 6 13.5V14.5C6 14.6326 6.05268 14.7598 6.14645 14.8536C6.24021 14.9473 6.36739 15 6.5 15C6.63261 15 6.75979 14.9473 6.85355 14.8536C6.94732 14.7598 7 14.6326 7 14.5V13.5ZM7 16.5C7 16.3674 6.94732 16.2402 6.85355 16.1464C6.75979 16.0527 6.63261 16 6.5 16C6.36739 16 6.24021 16.0527 6.14645 16.1464C6.05268 16.2402 6 16.3674 6 16.5C6 16.8978 6.15804 17.2794 6.43934 17.5607C6.72064 17.842 7.10218 18 7.5 18C7.63261 18 7.75979 17.9473 7.85355 17.8536C7.94732 17.7598 8 17.6326 8 17.5C8 17.3674 7.94732 17.2402 7.85355 17.1464C7.75979 17.0527 7.63261 17 7.5 17C7.36739 17 7.24021 16.9473 7.14645 16.8536C7.05268 16.7598 7 16.6326 7 16.5ZM14 16.5C14 16.3674 13.9473 16.2402 13.8536 16.1464C13.7598 16.0527 13.6326 16 13.5 16C13.3674 16 13.2402 16.0527 13.1464 16.1464C13.0527 16.2402 13 16.3674 13 16.5C13 16.6326 12.9473 16.7598 12.8536 16.8536C12.7598 16.9473 12.6326 17 12.5 17C12.3674 17 12.2402 17.0527 12.1464 17.1464C12.0527 17.2402 12 17.3674 12 17.5C12 17.6326 12.0527 17.7598 12.1464 17.8536C12.2402 17.9473 12.3674 18 12.5 18C12.8978 18 13.2794 17.842 13.5607 17.5607C13.842 17.2794 14 16.8978 14 16.5ZM9.5 17C9.36739 17 9.24021 17.0527 9.14645 17.1464C9.05268 17.2402 9 17.3674 9 17.5C9 17.6326 9.05268 17.7598 9.14645 17.8536C9.24021 17.9473 9.36739 18 9.5 18H10.5C10.6326 18 10.7598 17.9473 10.8536 17.8536C10.9473 17.7598 11 17.6326 11 17.5C11 17.3674 10.9473 17.2402 10.8536 17.1464C10.7598 17.0527 10.6326 17 10.5 17H9.5Z" fill="currentColor"/>
</svg>
