<svg xmlns="http://www.w3.org/2000/svg" width="24" height="24" fill="none" viewBox="0 0 24 24">
  <title>Stroke join bevel</title>
  <path fill="currentColor" fill-rule="evenodd" d="M6.5 6a.5.5 0 0 0 0 1H17v10.5a.5.5 0 0 0 1 0v-11a.5.5 0 0 0-.5-.5z" clip-rule="evenodd"/>
  <path fill="currentColor" fill-opacity="0.3" fill-rule="evenodd" d="M11 16.429V17.5a.5.5 0 0 0 1 0v-1.071a.5.5 0 0 0-1 0M11 13v.571a.5.5 0 0 0 1 0V12.5a.5.5 0 0 0-.4-.49l-.1-.01h-1.071a.5.5 0 0 0 0 1zm-3.328-.99-.1-.01H6.5a.5.5 0 0 0 0 1h1.071l.1-.01a.5.5 0 0 0 0-.98" clip-rule="evenodd"/>
</svg>
