<svg xmlns="http://www.w3.org/2000/svg" width="24" height="24" fill="none" viewBox="0 0 24 24">
  <title>Stroke dash cap none</title>
  <path fill="currentColor" d="m18.5 7 .1.01a.5.5 0 0 1 .4.49v9a.5.5 0 0 1-.5.5h-13a.5.5 0 0 1 0-1H18V8H5.5a.5.5 0 0 1 0-1z"/>
  <path fill="currentColor" fill-opacity="0.3" fill-rule="evenodd" d="M6.75 12a.5.5 0 0 0-.5-.5H5.5a.5.5 0 0 0 0 1h.75a.5.5 0 0 0 .5-.5m3.6-.49-.1-.01h-1.5a.5.5 0 0 0 0 1h1.5l.1-.01a.5.5 0 0 0 0-.98m4 0-.1-.01h-1.5a.5.5 0 0 0 0 1h1.5l.1-.01a.5.5 0 0 0 0-.98m2.4.99H18v-1h-1.25a.5.5 0 0 0 0 1" clip-rule="evenodd"/>
</svg>
