<svg xmlns="http://www.w3.org/2000/svg" width="24" height="24" fill="none" viewBox="0 0 24 24">
  <title>Stroke dynamic frequency</title>
  <path fill="currentColor" fill-rule="evenodd" d="M8.854 6.854a.5.5 0 1 0-.708-.708l-2 2a.5.5 0 0 0 0 .708l2 2a.5.5 0 0 0 .708-.708L7.707 9h8.586l-1.147 1.146a.5.5 0 0 0 .708.708l2-2a.5.5 0 0 0 0-.708l-2-2a.5.5 0 0 0-.708.708L16.293 8H7.707zM7 17.43a2.431 2.431 0 0 1 4.454-1.348l.26.39A3.431 3.431 0 0 0 18 14.568V14.5a.5.5 0 0 0-1 0v.069a2.431 2.431 0 0 1-4.454 1.348l-.26-.39A3.431 3.431 0 0 0 6 17.432v.069a.5.5 0 0 0 1 0z" clip-rule="evenodd"/>
</svg>
