<svg xmlns="http://www.w3.org/2000/svg" width="24" height="24" fill="none" viewBox="0 0 24 24">
  <title>Text transform uppercase</title>
  <path fill="currentColor" fill-rule="evenodd" d="M15.5 8c-1.7 0-3 1.501-3 3.25v1.5c0 1.749 1.3 3.25 3 3.25s3-1.501 3-3.25V12a.5.5 0 0 0-.5-.5h-2a.5.5 0 1 0 0 1h1.5v.25c0 1.289-.94 2.25-2 2.25s-2-.961-2-2.25v-1.5c0-1.289.94-2.25 2-2.25.655 0 1.252.357 1.624.938a.5.5 0 0 0 .843-.54C17.434 8.568 16.537 8 15.5 8m-9.754 8c.222 0 .42-.14.494-.35l.624-1.781h3.093l.624 1.781a.523.523 0 1 0 .985-.35L9.192 8.764a.83.83 0 0 0-1.56 0l-2.377 6.534a.523.523 0 0 0 .491.702m3.892-3.043L8.453 9.57a.043.043 0 0 0-.081 0l-1.188 3.387z" clip-rule="evenodd"/>
</svg>
