<svg xmlns="http://www.w3.org/2000/svg" width="24" height="24" fill="none" viewBox="0 0 24 24">
  <title>Underline dotted</title>
  <path fill="currentColor" fill-rule="evenodd" d="M9 7.5a.5.5 0 0 0-1 0V12a4 4 0 0 0 8 0V7.5a.5.5 0 0 0-1 0V12a3 3 0 1 1-6 0zm-1.5 11a.5.5 0 1 1-1 0 .5.5 0 0 1 1 0m2 0a.5.5 0 1 1-1 0 .5.5 0 0 1 1 0m1.5.5a.5.5 0 1 0 0-1 .5.5 0 0 0 0 1m2.5-.5a.5.5 0 1 1-1 0 .5.5 0 0 1 1 0m1.5.5a.5.5 0 1 0 0-1 .5.5 0 0 0 0 1m2.5-.5a.5.5 0 1 1-1 0 .5.5 0 0 1 1 0" clip-rule="evenodd"/>
</svg>
