<svg xmlns="http://www.w3.org/2000/svg" width="24" height="24" fill="none" viewBox="0 0 24 24">
  <title>Underline wavy</title>
  <path fill="currentColor" fill-rule="evenodd" d="M9 7.5a.5.5 0 0 0-1 0V12a4 4 0 0 0 8 0V7.5a.5.5 0 0 0-1 0V12a3 3 0 1 1-6 0zm7.699 11.009c.143-.14.301-.295.301-.488v-.107c0-.276-.23-.508-.49-.418a1.5 1.5 0 0 0-.57.357l-.586.586a.5.5 0 0 1-.708 0l-.585-.586a1.5 1.5 0 0 0-2.122 0l-.585.586a.5.5 0 0 1-.708 0l-.585-.586a1.5 1.5 0 0 0-2.122 0l-.585.586-.053.051c-.143.14-.301.295-.301.488v.107c0 .276.23.508.49.418.209-.072.404-.19.57-.357l.586-.586a.5.5 0 0 1 .708 0l.585.586a1.5 1.5 0 0 0 2.122 0l.585-.586a.5.5 0 0 1 .708 0l.585.586a1.5 1.5 0 0 0 2.122 0l.585-.586z" clip-rule="evenodd"/>
</svg>
