<svg xmlns="http://www.w3.org/2000/svg" width="24" height="24" fill="none" viewBox="0 0 24 24">
  <title>Tidy Up Grid</title>
  <path fill="currentColor" d="M7.103 15.005A1 1 0 0 1 8 16v1l-.005.102a1 1 0 0 1-.892.893L7 18H6l-.103-.005a1 1 0 0 1-.892-.893L5 17v-1a1 1 0 0 1 .897-.995L6 15h1zm5 0A1 1 0 0 1 13 16v1l-.005.102a1 1 0 0 1-.893.893L12 18h-1l-.102-.005a1 1 0 0 1-.893-.893L10 17v-1a1 1 0 0 1 .898-.995L11 15h1zm5 0A1 1 0 0 1 18 16v1l-.005.102a1 1 0 0 1-.893.893L17 18h-1l-.102-.005a1 1 0 0 1-.893-.893L15 17v-1a1 1 0 0 1 .898-.995L16 15h1zM11 17h1v-1h-1zm-5 0h1v-1H6zm10 0h1v-1h-1zm-8.897-6.995A1 1 0 0 1 8 11v1l-.005.102a1 1 0 0 1-.892.893L7 13H6l-.103-.005a1 1 0 0 1-.892-.893L5 12v-1a1 1 0 0 1 .897-.995L6 10h1zm5 0A1 1 0 0 1 13 11v1l-.005.102a1 1 0 0 1-.893.893L12 13h-1l-.102-.005a1 1 0 0 1-.893-.893L10 12v-1a1 1 0 0 1 .898-.995L11 10h1zm5 0A1 1 0 0 1 18 11v1l-.005.102a1 1 0 0 1-.893.893L17 13h-1l-.102-.005a1 1 0 0 1-.893-.893L15 12v-1a1 1 0 0 1 .898-.995L16 10h1zM6 12h1v-1H6zm5 0h1v-1h-1zm5 0h1v-1h-1zM7.103 5.005A1 1 0 0 1 8 6v1l-.005.103a1 1 0 0 1-.892.892L7 8H6l-.103-.005a1 1 0 0 1-.892-.892L5 7V6a1 1 0 0 1 .897-.995L6 5h1zm5 0A1 1 0 0 1 13 6v1l-.005.103a1 1 0 0 1-.893.892L12 8h-1l-.102-.005a1 1 0 0 1-.893-.892L10 7V6a1 1 0 0 1 .898-.995L11 5h1zm5 0A1 1 0 0 1 18 6v1l-.005.103a1 1 0 0 1-.893.892L17 8h-1l-.102-.005a1 1 0 0 1-.893-.892L15 7V6a1 1 0 0 1 .898-.995L16 5h1zM6 7h1V6H6zm5 0h1V6h-1zm5 0h1V6h-1z"/>
</svg>
