<svg xmlns="http://www.w3.org/2000/svg" width="24" height="24" viewBox="0 0 24 24" fill="none">
  <title>Variable color</title>
  <path d="M7.31199 6.80303C8.64427 5.60109 10.3872 4.95666 12.181 5.00281C13.9747 5.04896 15.6823 5.78217 16.951 7.05103L17.231 7.34903C18.4499 8.72004 19.0819 10.5148 18.991 12.347L18.962 12.727C18.807 14.222 17.446 15 16.242 15H13.5L13.399 15.01C13.2861 15.0331 13.1845 15.0944 13.1117 15.1837C13.0388 15.273 12.999 15.3848 12.999 15.5V16C12.999 16.82 12.661 17.603 12.079 18.127C11.479 18.669 10.611 18.927 9.70899 18.615C8.83816 18.3134 8.03547 17.8427 7.34699 17.23L7.04999 16.95C6.3999 16.3 5.88422 15.5283 5.53239 14.679C5.18056 13.8297 4.99948 12.9193 4.99948 12C4.99948 11.0807 5.18056 10.1704 5.53239 9.32108C5.88422 8.47176 6.3999 7.70005 7.04999 7.05003L7.31199 6.80303ZM16.242 7.75803C15.1168 6.6329 13.5907 6.00081 11.9995 6.00081C10.4083 6.00081 8.88219 6.6329 7.75699 7.75803L7.54499 7.98303C6.8813 8.71867 6.41011 9.60722 6.1735 10.5693C5.93689 11.5315 5.94223 12.5372 6.18902 13.4968C6.43582 14.4563 6.9164 15.3398 7.58785 16.0684C8.2593 16.7969 9.10072 17.3479 10.037 17.672C11.015 18.009 11.885 17.215 11.99 16.205L12 16V15.501C12 15.1032 12.158 14.7217 12.4393 14.4404C12.7206 14.1591 13.1022 14.001 13.5 14.001H16.243L16.401 13.995C17.134 13.938 17.792 13.482 17.944 12.779L17.968 12.624C18.0547 11.7945 17.9675 10.956 17.712 10.1621C17.4565 9.36819 17.0382 8.63626 16.484 8.01303L16.242 7.75803ZM8.49999 12.001C8.7652 12.001 9.01956 12.1064 9.20709 12.2939C9.39463 12.4815 9.49999 12.7358 9.49999 13.001C9.49999 13.2662 9.39463 13.5206 9.20709 13.7081C9.01956 13.8957 8.7652 14.001 8.49999 14.001C8.23477 14.001 7.98042 13.8957 7.79288 13.7081C7.60534 13.5206 7.49999 13.2662 7.49999 13.001C7.49999 12.7358 7.60534 12.4815 7.79288 12.2939C7.98042 12.1064 8.23477 12.001 8.49999 12.001ZM15.5 10.001C15.7652 10.0012 16.0195 10.1066 16.2069 10.2943C16.3944 10.4819 16.4996 10.7363 16.4995 11.0015C16.4994 11.2667 16.3939 11.521 16.2062 11.7085C16.0186 11.8959 15.7642 12.0012 15.499 12.001C15.2338 12.001 14.9794 11.8957 14.7919 11.7081C14.6043 11.5206 14.499 11.2662 14.499 11.001C14.499 10.7358 14.6043 10.4815 14.7919 10.2939C14.9794 10.1064 15.2338 10.001 15.499 10.001M9.49899 8.50103C9.76433 8.50103 10.0188 8.60644 10.2064 8.79407C10.3941 8.9817 10.4995 9.23618 10.4995 9.50153C10.4995 9.76688 10.3941 10.0214 10.2064 10.209C10.0188 10.3966 9.76433 10.502 9.49899 10.502C9.23377 10.502 8.97942 10.3967 8.79188 10.2091C8.60434 10.0216 8.49899 9.76725 8.49899 9.50203C8.49899 9.23681 8.60434 8.98246 8.79188 8.79492C8.97942 8.60739 9.23377 8.50103 9.49899 8.50103ZM12.999 7.50203C13.2642 7.50203 13.5186 7.60739 13.7061 7.79492C13.8936 7.98246 13.999 8.23681 13.999 8.50203C13.999 8.76725 13.8936 9.0216 13.7061 9.20914C13.5186 9.39667 13.2642 9.50203 12.999 9.50203C12.7338 9.50203 12.4794 9.39667 12.2919 9.20914C12.1043 9.0216 11.999 8.76725 11.999 8.50203C11.999 8.23681 12.1043 7.98246 12.2919 7.79492C12.4794 7.60739 12.7338 7.50203 12.999 7.50203Z" fill="currentColor"/>
</svg>
