<svg xmlns="http://www.w3.org/2000/svg" width="24" height="24" fill="none" viewBox="0 0 24 24">
  <title>No mirroring</title>
  <path fill="currentColor" fill-rule="evenodd" d="M9.88 8.523a1 1 0 0 1-.014.977 1 1 0 1 1 .013-.977m1.057-.023a2 2 0 1 0-3.66 1.516L5.293 12H4.5a.5.5 0 0 0-.5.5v1a.5.5 0 0 0 .5.5h1a.5.5 0 0 0 .5-.5v-.793l1.984-1.984A2 2 0 0 0 10.937 9.5H18a.5.5 0 0 0 .5.5h1a.5.5 0 0 0 .5-.5v-1a.5.5 0 0 0-.5-.5h-1a.5.5 0 0 0-.5.5z" clip-rule="evenodd"/>
  <path fill="currentColor" fill-opacity=".3" fill-rule="evenodd" d="M6.734 11.973a16 16 0 0 0-.223.922 28 28 0 0 0-.398 2.452 31 31 0 0 0-.105 1.034l-.005.061-.001.016v.003L6 16.463l.499.037-.5-.035a.5.5 0 0 0 .981.17l.018-.1v-.017l.003-.022.003-.034v-.003l.018-.214a27 27 0 0 1 .466-3.14c.183-.854.42-1.672.715-2.27a2 2 0 0 1-.22-.112zM10.937 9.5c-.08.313-.235.597-.444.83.41.17.826.4 1.245.68.94.626 1.848 1.47 2.646 2.33a28 28 0 0 1 2.647 3.357l.021.032.016.024.009.014.002.003.063.08a.5.5 0 0 0 .825-.53l-.046-.09-.002-.003h-.001l-.002-.003-.003-.006-.007-.011-.018-.027-.023-.035-.003-.004q-.052-.08-.15-.224a29 29 0 0 0-2.596-3.257c-.827-.89-1.794-1.796-2.823-2.482A8.6 8.6 0 0 0 11.09 9.5z" clip-rule="evenodd"/>
</svg>
