<svg xmlns="http://www.w3.org/2000/svg" width="24" height="24" fill="none" viewBox="0 0 24 24">
  <title>Mirror angle and length</title>
  <path fill="currentColor" fill-rule="evenodd" d="M12 8a1 1 0 1 1 0 2 1 1 0 0 1 0-2m-1.937.5a2 2 0 0 1 3.874 0H18a.5.5 0 0 1 .5-.5h1a.5.5 0 0 1 .5.5v1a.5.5 0 0 1-.5.5h-1a.5.5 0 0 1-.5-.5h-4.063a2 2 0 0 1-3.874 0H6a.5.5 0 0 1-.5.5h-1a.5.5 0 0 1-.5-.5v-1a.5.5 0 0 1 .5-.5h1a.5.5 0 0 1 .5.5z" clip-rule="evenodd"/>
  <path fill="currentColor" fill-opacity=".3" fill-rule="evenodd" d="M8.616 9.5c-1.158.785-1.95 1.927-2.483 3.033a12.7 12.7 0 0 0-.918 2.686 13 13 0 0 0-.201 1.136l-.005.038-.004.032-.002.018v.006l-.001.002.498.049-.498-.048a.5.5 0 0 0 .996.096v-.016l.004-.028.004-.027q.009-.077.031-.224c.03-.195.078-.477.154-.816.153-.679.413-1.577.843-2.47.637-1.322 1.616-2.584 3.139-3.152a2 2 0 0 1-.11-.315zm5.321 0a2 2 0 0 1-.11.315c1.523.569 2.502 1.83 3.139 3.152.43.893.69 1.791.842 2.47a12 12 0 0 1 .186 1.04l.003.027.004.028v.016l.021.1a.5.5 0 0 0 .976-.196l-.498.048.498-.049-.001-.002v-.006l-.002-.018q0-.014-.004-.032l-.005-.038-.034-.253a13 13 0 0 0-.167-.883 12.7 12.7 0 0 0-.918-2.686c-.533-1.106-1.325-2.248-2.483-3.033z" clip-rule="evenodd"/>
</svg>
