<svg xmlns="http://www.w3.org/2000/svg" width="24" height="24" fill="none" viewBox="0 0 24 24">
  <title>Move</title>
  <path fill="currentColor" d="M10.11 12.054c-.462-1.182.655-2.346 1.831-1.983l.115.04 5.996 2.356.119.052c1.155.563 1.096 2.258-.103 2.734l-.123.043-2.026.623-.623 2.025c-.404 1.313-2.194 1.425-2.777.228l-.053-.12zm-.964 2.092a.5.5 0 1 1 .708.707l-1.89 1.888A1 1 0 0 1 8 17v1l-.005.102a1 1 0 0 1-.892.893L7 19H6l-.103-.005a1 1 0 0 1-.892-.893L5 18v-1a1 1 0 0 1 .897-.995L6 16h1l.103.005a1 1 0 0 1 .155.03zm2.544-3.104a.5.5 0 0 0-.648.648l2.356 5.996a.5.5 0 0 0 .91.044l.033-.08.78-2.53 2.53-.78a.501.501 0 0 0 .113-.905l-.078-.037zM6 18h1v-1H6zM18.103 5.005A1 1 0 0 1 19 6v1l-.005.103a1 1 0 0 1-.893.892L18 8h-1l-.102-.005a1 1 0 0 1-.157-.03l-1.887 1.889a.5.5 0 1 1-.707-.708l1.887-1.888a1 1 0 0 1-.03-.155L16 7V6a1 1 0 0 1 .898-.995L17 5h1zM17 7h1V6h-1z"/>
</svg>
